<?xml version="1.0" encoding="UTF-8"?>
<svg id="artwork" xmlns="http://www.w3.org/2000/svg" xmlns:xlink="http://www.w3.org/1999/xlink" viewBox="0 0 1024.99998 417">
  <defs>
    <style>
      .cls-1 {
        fill: url(#linear-gradient-7);
      }

      .cls-2 {
        fill: url(#linear-gradient-5);
      }

      .cls-3 {
        fill: url(#linear-gradient-6);
      }

      .cls-4 {
        fill: url(#linear-gradient-4);
      }

      .cls-5 {
        fill: url(#linear-gradient-3);
      }

      .cls-6 {
        fill: url(#linear-gradient-2);
      }

      .cls-7 {
        fill: url(#linear-gradient);
      }

      .cls-8 {
        fill: #b04000;
      }

      .cls-9 {
        fill: #f95a00;
      }
    </style>
    <linearGradient id="linear-gradient" x1="822.21652" y1="134.30326" x2="775.0738" y2="4.7797" gradientUnits="userSpaceOnUse">
      <stop offset="0" stop-color="#f5951e"/>
      <stop offset="1" stop-color="#ffc20e"/>
    </linearGradient>
    <linearGradient id="linear-gradient-2" x1="650.32322" y1="342.66659" x2="826.05462" y2="220.949" gradientUnits="userSpaceOnUse">
      <stop offset="0" stop-color="#31723f"/>
      <stop offset="1" stop-color="#054a29"/>
    </linearGradient>
    <linearGradient id="linear-gradient-3" x1="676.71237" y1="422.94098" x2="846.7015" y2="252.95185" gradientUnits="userSpaceOnUse">
      <stop offset=".48592" stop-color="#36a9c7"/>
      <stop offset="1" stop-color="#0d6e9c"/>
    </linearGradient>
    <linearGradient id="linear-gradient-4" x1="1025.91858" y1="29.11349" x2="927.30715" y2="105.45754" gradientUnits="userSpaceOnUse">
      <stop offset=".04477" stop-color="#fcd0a9"/>
      <stop offset=".3387" stop-color="#f95a00"/>
    </linearGradient>
    <linearGradient id="linear-gradient-5" x1="667.70736" y1="209.27645" x2="878.97366" y2="87.87732" gradientUnits="userSpaceOnUse">
      <stop offset=".03197" stop-color="#b04000"/>
      <stop offset=".59895" stop-color="#f95a00"/>
    </linearGradient>
    <linearGradient id="linear-gradient-6" x1="900.62921" y1="140.93475" x2="818.72505" y2="282.79692" gradientUnits="userSpaceOnUse">
      <stop offset=".20269" stop-color="#f95a00"/>
      <stop offset=".83052" stop-color="#b04000"/>
    </linearGradient>
    <linearGradient id="linear-gradient-7" x1="826.73582" y1="232.17184" x2="996.37967" y2="62.52799" gradientUnits="userSpaceOnUse">
      <stop offset=".30374" stop-color="#f5951e"/>
      <stop offset=".68727" stop-color="#ffc20e"/>
    </linearGradient>
  </defs>
  <g id="Australia_Horizontal" data-name="Australia Horizontal">
    <g id="Australia">
      <path class="cls-8" d="M59.53408,161.49217c-.26833-.69373-.93039-1.14911-1.67098-1.14911h-19.208c-.74084,0-1.40629.45538-1.67114,1.14507L.12091,257.04881c-.45085,1.17415.41506,2.43307,1.67098,2.43307h16.26671c.74423,0,1.4134-.46063,1.67462-1.15832l7.60389-20.18912c.10374-.27932.37207-.46467.66901-.46467h39.79731c.29709,0,.56542.18535.66917.46467l7.60373,20.18912c.2613.69769.93039,1.15832,1.67478,1.15832h16.83553c1.25608,0,2.12191-1.25891,1.67106-2.42911l-36.7236-95.5606ZM61.02626,221.23887h-26.09973c-.50095,0-.84805-.50175-.66917-.97038l12.98543-33.96847c.23262-.61164,1.09861-.61164,1.33478,0l13.1143,33.96847.00356-.00396c.17889.46863-.16822.97434-.66917.97434Z"/>
      <path class="cls-8" d="M193.40325,206.51427c0-3.96871,3.96475-6.23372,9.06269-6.23372,6.29456,0,10.88945,2.91236,12.43431,7.95075.22906.74787.92005,1.25625,1.70378,1.25625h12.92418c1.13182,0,1.98302-1.03785,1.758-2.1472-2.5907-12.73487-13.37956-20.37052-28.81632-20.37052s-25.35195,9.06269-25.35195,20.5347c0,26.62669,38.66267,17.1365,38.66267,31.01644,0,5.09923-4.10776,8.07243-10.76244,8.07243-7.09551,0-11.50772-3.41266-12.67403-9.44656-.16547-.84062-.8988-1.45614-1.75792-1.45614h-13.05661v-.00396c-1.08019,0-1.91418.95576-1.77521,2.02932,1.69312,12.9136,11.89425,22.89771,29.26377,22.89771,16.00202,0,27.61695-9.34734,27.61695-22.51772,0-28.74885-39.23189-18.55434-39.23189-31.58178Z"/>
      <path class="cls-8" d="M280.4938,244.30866c-1.84526.45801-3.87456.73327-5.55969.73327-5.94777,0-9.62925-3.68277-9.62925-10.90666v-30.72654c0-.39391.32229-.71619.71619-.71619h14.34857c.98774,0,1.78846-.80072,1.78846-1.78846v-11.01c0-.98845-.8013-1.78975-1.78975-1.78975h-14.34869c-.39313,0-.71478-.32165-.71478-.71478v-14.91387c0-.98845-.8013-1.78975-1.78975-1.78975h-14.40949c-.98774,0-1.78846.80072-1.78846,1.78846v14.91512c0,.39315-.32167.71482-.71482.71482h-8.96872c-.98774,0-1.78846.80072-1.78846,1.78846v11.01129c0,.98774.80072,1.78846,1.78846,1.78846h8.96735c.39391,0,.71619.32229.71619.71619v32.28594c0,16.14632,10.76373,24.92703,25.20901,24.92703,3.20292,0,6.18847-.4285,8.96293-1.37794.73287-.2508,1.23416-.92925,1.23416-1.70385v-11.51782c.00001-1.16478-1.09899-1.99402-2.22947-1.71342Z"/>
      <path class="cls-8" d="M424.04612,159.21253h14.41078c.98708,0,1.78846.80138,1.78846,1.78846v96.69509c0,.98779-.80196,1.78975-1.78975,1.78975h-14.40812c-.98784,0-1.78983-.802-1.78983-1.78983v-96.69501c0-.98708.80138-1.78846,1.78846-1.78846Z"/>
      <path class="cls-8" d="M471.36022,167.14212c0,6.22976-4.67294,10.62072-11.04571,10.62072-6.37406,0-11.04701-4.53397-11.04701-10.62072s4.67294-10.76381,11.04701-10.76381c6.37277,0,11.04571,4.53397,11.04571,10.76381ZM467.5914,188.10302h-14.40949c-.98751,0-1.78846.80224-1.78846,1.78975v67.80071c0,.98751.80095,1.78838,1.78846,1.78838h14.40949c.98888,0,1.78975-.80087,1.78975-1.78838v-67.80071c0-.98751-.80087-1.78975-1.78975-1.78975Z"/>
      <path class="cls-8" d="M165.40555,188.10302h-14.40682c-.98845,0-1.78975.8013-1.78975,1.78975v29.08368c0,16.28796-6.79769,25.91721-17.98771,25.91721-8.35482,0-13.73644-5.52544-13.73644-14.87141v-40.13392c0-.98819-.80108-1.78927-1.78927-1.78927h-14.40949c-.98814,0-1.78919.80105-1.78919,1.78919v43.95574c0,16.85322,11.18921,26.76841,26.48271,26.76841,8.71664,0,15.75526-3.08438,20.21643-7.23852.18268-.1721,4.87421-4.90597,5.21041-5.27796,1.91822-2.13258,3.24597-1.296,1.86126,1.2232-2.339,4.09567-4.06138,5.35554-4.06138,8.2508h0c0,1.11103.80129,1.91195,1.78975,1.91195h14.4082c.98845,0,1.78975-.8013,1.78975-1.78975v-67.80064c0-.98774-.80072-1.78846-1.78846-1.78846Z"/>
      <path class="cls-8" d="M308.54078,232.42752c0-19.97073,8.92501-28.75144,19.26253-28.75144,2.40375,0,4.89003.25157,7.39482.95345,1.12523.31531,2.23443-.56062,2.23443-1.72919v-13.28689c0-.77307-.49376-1.46018-1.22716-1.70241v.00663c-1.98965-.65794-4.24803-.94784-6.70234-.94784-5.33951,0-9.9293,1.69022-13.62074,4.04869-1.63085.95026-3.07984,2.02822-4.3273,3.18982-.18268.1721-4.87421,4.90597-5.21041,5.27796-1.91822,2.13258-3.24597,1.296-1.86126-1.2232,2.339-4.09567,4.06138-5.35554,4.06138-8.2508h0c0-1.11103-.80129-1.91195-1.78975-1.91195h-14.4082c-.98845,0-1.78975.8013-1.78975,1.78975v67.80064c0,.98774.80072,1.78846,1.78846,1.78846h14.40682c.98845,0,1.78975-.8013,1.78975-1.78975l-.00129-25.26194Z"/>
      <path class="cls-8" d="M410.66985,188.09829h-14.40815c-.98849,0-1.78976.80094-1.78976,1.91198,0,2.89523,1.72239,4.15511,4.06139,8.25077,1.38472,2.51922.05694,3.35582-1.86129,1.2232-.33618-.37195-5.02769-5.10586-5.21038-5.27796-4.39313-4.09074-11.2857-7.14417-19.81881-7.23634v-.00011c-20.19696.39863-33.81865,14.61548-33.81865,36.81397,0,.00102,0,.00198.00005.00299-.00005.00102-.00005.00203-.00005.00305,0,22.19848,13.6217,36.41534,33.81865,36.81397v-.00011c8.53311-.09217,15.42568-3.1456,19.81881-7.23634.18269-.1721,4.8742-4.90601,5.21038-5.27796,1.91823-2.13262,3.24601-1.29602,1.86129,1.2232-2.33899,4.09566-4.06139,5.35553-4.06139,8.25077,0,1.11103.80126,1.91198,1.78976,1.91198h14.40815c.98849,0,1.78976-.80132,1.78976-1.78976v-67.79754c0-.98844-.80126-1.78976-1.78976-1.78976ZM394.47579,223.78679c-.00005.00064-.00005.00134-.00005.00198h.00011c.00005.00123.00005.00241.00005.00364,0,12.88978-7.93351,21.52751-19.26251,21.52751s-19.26118-8.78198-19.26118-21.52751c0-.00123,0-.00241.00005-.00364h.00011c0-.00064,0-.00134-.00005-.00198.00005-.00064.00005-.00128.00005-.00192h-.00011c-.00005-.00123-.00005-.00241-.00005-.00364,0-12.74553,7.93217-21.52751,19.26118-21.52751s19.26251,8.63774,19.26251,21.52751c0,.00123,0,.00241-.00005.00364h-.00011c0,.00064,0,.00128.00005.00192Z"/>
      <path class="cls-8" d="M549.87621,188.09829h-14.40815c-.98849,0-1.78976.80094-1.78976,1.91198,0,2.89523,1.72239,4.15511,4.06139,8.25077,1.38472,2.51922.05694,3.35582-1.86129,1.2232-.33618-.37195-5.02769-5.10586-5.21038-5.27796-4.39313-4.09074-11.2857-7.14417-19.81881-7.23634v-.00011c-20.19696.39863-33.81865,14.61548-33.81865,36.81397,0,.00102,0,.00198.00005.00299-.00005.00102-.00005.00203-.00005.00305,0,22.19848,13.6217,36.41534,33.81865,36.81397v-.00011c8.53311-.09217,15.42568-3.1456,19.81881-7.23634.18269-.1721,4.8742-4.90601,5.21038-5.27796,1.91823-2.13262,3.24601-1.29602,1.86129,1.2232-2.33899,4.09566-4.06139,5.35553-4.06139,8.25077,0,1.11103.80126,1.91198,1.78976,1.91198h14.40815c.98849,0,1.78976-.80132,1.78976-1.78976v-67.79754c0-.98844-.80126-1.78976-1.78976-1.78976ZM533.68216,223.78679c-.00005.00064-.00005.00134-.00005.00198h.00011c.00005.00123.00005.00241.00005.00364,0,12.88978-7.93351,21.52751-19.26251,21.52751s-19.26118-8.78198-19.26118-21.52751c0-.00123,0-.00241.00005-.00364h.00011c0-.00064,0-.00134-.00005-.00198.00005-.00064.00005-.00128.00005-.00192h-.00011c-.00005-.00123-.00005-.00241-.00005-.00364,0-12.74553,7.93217-21.52751,19.26118-21.52751s19.26251,8.63774,19.26251,21.52751c0,.00123,0,.00241-.00005.00364h-.00011c0,.00064,0,.00128.00005.00192Z"/>
    </g>
    <g id="kangaroo">
      <path id="sun" class="cls-7" d="M770.6646,152.64736c11.54883-3.18855,21.07519-7.54943,27.26612-11.89278l.21899-.1486c2.74818-1.80279,5.43868-3.62122,8.04021-5.38002,11.24691-7.60125,21.8696-14.78064,37.42405-21.28643,11.00421-4.73581,22.90346-7.99145,34.29862-9.44742,2.57789-7.83375,3.99206-16.19573,3.99206-24.89238,0-43.96173-35.63806-79.59973-79.59979-79.59973s-79.59973,35.638-79.59973,79.59973c0,32.71555,19.74345,60.80864,47.95948,73.04763Z"/>
      <path id="rear_leg" data-name="rear leg" class="cls-6" d="M694.70278,311.12073c34.53472-24.3543,65.86286-42.61679,110.46984-59.81406,7.41531-2.8622,22.16986-7.32824,30.21985-9.71793.28596-.07516.53924-.13321.78341-.1871.2105-1.28812.26702-2.55626.11011-3.79103-2.07782-9.64491-14.13129-15.32116-28.20662-18.80032-.20256.25254-.42827.50887-.7003.77082-6.21995,6.02674-18.77899,13.83953-35.20142,23.91277-15.99195,9.80402-49.21417,26.05426-49.21417,26.05426,0,0-38.9897,20.46893-52.23744,32.05894-27.03368,23.67654-22.97648,44.72613-15.78762,44.72613,10.13771,0,14.89429-17.67082,39.76437-35.21248Z"/>
      <path id="ear" class="cls-9" d="M960.74395,72.74944c.34609.26934.5927.48253.83327.69621,1.36566-2.37814,2.55558-4.83834,3.53159-7.36857.67757-2.27041.51724-3.61188.30399-4.34646-.75841-2.23406-3.84303-4.01675-6.01336-4.95169-2.09939-.90402-4.402-1.59272-6.58644-2.25997-1.32344-.39827-3.86325-1.11923-4.89645.20445-1.68987,2.16318,10.44976,16.50858,12.82741,18.02602Z"/>
      <path id="front_leg" data-name="front leg" class="cls-5" d="M868.62715,275.71333c-15.41385,8.78519-32.37942,8.05745-53.24357,3.72021.00006-.00006.00018-.00012.00024-.00018-4.00245,3.11541-7.82641,5.88266-11.02242,8.19719-41.71607,29.25228-75.98896,38.7872-120.4177,83.19456-7.99976,7.89418-14.63509,19.27772-16.73729,29.22906-1.79454,9.28293-.75866,16.48145,6.23559,16.94583,3.61597.00055,7.40816-3.9623,12.86218-10.34185,40.73371-52.24691,112.43046-90.79899,166.05996-121.42603,5.86243-3.35054,11.42393-6.5587,16.78049-9.83714-.17219.10626-.34401.21258-.51748.31835Z"/>
      <path id="head" class="cls-4" d="M1022.24324,68.23415c3.21177-2.25758,3.68111-8.01064,1.07059-10.68238l-.06532-.07051c-2.83232-2.88114-7.22045-3.48356-11.08267-4.05231-8.26782-1.26282-16.79509-.82098-24.89653-3.19222-6.07666-1.41992-10.66729-5.70344-15.69077-9.08526-4.23299-2.38969-7.64976-4.03447-5.29167,2.63123,1.71077,4.66988,5.15596,10.55284,6.67786,13.89458,1.61728,3.60314,1.35918,7.46468.19425,11.17328-5.05776,13.31373-14.90376,24.74096-26.87964,32.3295-8.84207,5.50064-18.30086,7.94318-28.26638,9.17325-3.88006.45326-11.08053.97032-11.11194.99244,14.94385.31749,53.77406.65002,80.66849-21.46302,2.15346-1.83799,4.30576-3.79158,6.41725-5.91333.09147-.09245.19162-.19535.30246-.3079,1.78714-1.82725,6.07977-6.20267,13.36501-9.56541.06083-.02808.20273-.08433.20866-.08488.14414-.07332.28419-.15367.42943-.2251,3.89106-1.8744,10.30342-2.55351,13.95092-5.55197Z"/>
      <g id="tail_and_hind_muscle" data-name="tail and hind muscle">
        <path id="tail" class="cls-2" d="M924.67219,184.02357c-.33343-15.92782-7.87791-30.52026-19.86634-40.03391h-.011c-1.35559-1.07618-2.76612-2.09834-4.22974-3.03533-.0531-.04308-.48362-.33337-.64578-.3974-5.12316-3.1868-10.88195-5.51237-17.11147-6.75927-.04436-.00898-.08737-.02041-.1318-.02921-2.69206-.53158-40.80208-10.70311-79.78719,13.90042-.00006.00159.00006-.00159,0,0-.02377.01564-.1391.10069-.16293.11633-21.20519,14.87669-75.25246,28.88722-120.26185,6.80992-23.13227-10.82305-43.19633-29.51772-58.69913-48.76504-9.34373-11.27141-17.29948-24.06498-22.56494-33.06629-2.93848-5.15285-8.50359-6.59313-6.06271,2.48328,4.64522,13.96518,10.11495,25.67872,18.38775,39.69657,17.61763,30.52943,47.98356,56.51794,81.23969,71.0725,20.95614,9.37959,45.55496,16.00755,74.49735,18.77074,19.77781,1.65022,52.42452,4.44243,67.61851,18.19082,3.96969,3.59202,6.75157,7.92966,7.79719,13.19286,2.3114,15.85908-14.68838,31.89413-29.29421,43.26299,20.86413,4.33721,37.82969,5.06493,53.24358-3.72027.34241-.20878.68073-.41903,1.02143-.62837,20.66384-14.20855,40.57808-34.81122,50.46036-62.46731,0-.05407.03208-.14017.0641-.21526.75387-2.20643,4.80042-15.2711,4.49913-28.37879Z"/>
        <path id="hind_leg_muscle" data-name="hind leg muscle" class="cls-3" d="M920.17308,212.40239c.75383-2.20644,4.8004-15.27112,4.4991-28.37881-.33344-15.92779-7.87786-30.52023-19.86633-40.03389h-.011c-1.35558-1.07621-2.76615-2.09835-4.22975-3.03537-.0531-.04308-.48357-.33338-.64574-.39742-7.37126-4.58513-16.05593-7.39331-25.56965-7.75975-28.62609-1.06515-53.36785,21.7824-53.94845,50.79595-.44153,22.49218,11.4609,34.36247,16.48646,39.36616,0,0,.26454.26645.39825.39177,3.75362,3.5182,6.38217,7.7374,7.39181,12.81955,2.31141,15.85905-14.68837,31.89414-29.2942,43.26296,20.86414,4.33723,37.82971,5.06497,53.24357-3.72021.34242-.20879.68075-.41905,1.02146-.62839,20.66385-14.20853,40.57808-34.81121,50.46037-62.46729,0-.05408.03208-.14017.0641-.21527Z"/>
      </g>
      <path id="shoulder" class="cls-1" d="M1007.65423,74.09609c-7.28523,3.36274-11.57787,7.73816-13.36501,9.56541-.11084.11255-.21099.21545-.30246.3079-2.11148,2.12175-4.26379,4.07534-6.41725,5.91333-26.89443,22.11303-65.72464,21.78051-80.66849,21.46302.03141-.02212-11.70934.41465-19.22101.85019-13.7904.51907-28.5001,4.30821-40.78247,9.59431-18.30734,7.65691-29.73017,16.50473-43.92147,25.82597,38.95475-24.53333,77.00993-14.37901,79.7-13.84778.04448.0088.08768.02041.13211.02927,6.22936,1.24687,11.9881,3.57246,17.11118,6.75918.16217.06404.59264.35434.64574.39742,1.46361.93702,2.87418,1.95915,4.22975,3.03537h.011c11.98846,9.51366,19.53289,24.1061,19.86633,40.03389.3013,13.10769-3.74526,26.17237-4.4991,28.37881-.03202.0751-.0641.16119-.0641.21527-9.88229,27.65602-29.7964,48.2587-50.46019,62.46717,10.66313-6.55162,20.50858-13.41468,30.2171-22.31003,28.01408-24.92659,52.64549-66.94133,64.90189-103.69942.05591-.15441.16205-.11047.31566.13168,11.19124,17.19038-.94539,40.52389,6.10002,43.54354.52627.22556,1.12383.23562,1.68511.12247,6.37298-1.28472,6.747-10.92523,7.23943-16.25032.88386-10.53243,1.55587-21.07501,1.84055-31.64209.64708-21.30244-.36155-45.38092,14.75381-62.33195,3.15617-3.50959,6.9219-6.4808,11.16051-8.6375-.00593.00055-.14783.0568-.20866.08488Z"/>
    </g>
  </g>
</svg>