<svg width="130" height="53" viewBox="0 0 130 53" fill="none" xmlns="http://www.w3.org/2000/svg">
<g clip-path="url(#clip0_6585_12720)">
<path d="M7.55066 20.4822C7.51663 20.3942 7.43266 20.3364 7.33873 20.3364H4.9026C4.80864 20.3364 4.72424 20.3942 4.69065 20.4817L0.0153343 32.6015C-0.0418466 32.7505 0.0679761 32.9101 0.227264 32.9101H2.29036C2.38475 32.9101 2.46962 32.8517 2.50275 32.7632L3.46715 30.2027C3.4803 30.1672 3.51433 30.1437 3.552 30.1437H8.59946C8.63714 30.1437 8.67117 30.1672 8.68433 30.2027L9.6487 32.7632C9.68184 32.8517 9.7667 32.9101 9.86111 32.9101H11.9964C12.1557 32.9101 12.2655 32.7505 12.2083 32.602L7.55066 20.4822ZM7.73992 28.0598H4.42971C4.36617 28.0598 4.32215 27.9962 4.34484 27.9367L5.99177 23.6285C6.02127 23.551 6.1311 23.551 6.16106 23.6285L7.82433 27.9367L7.82479 27.9362C7.84747 27.9957 7.80345 28.0598 7.73992 28.0598Z" fill="white"/>
<path d="M24.5294 26.1922C24.5294 25.6888 25.0322 25.4016 25.6788 25.4016C26.4771 25.4016 27.0599 25.7709 27.2558 26.41C27.2849 26.5048 27.3725 26.5693 27.4719 26.5693H29.1111C29.2546 26.5693 29.3626 26.4377 29.334 26.297C29.0055 24.6818 27.6371 23.7134 25.6793 23.7134C23.7215 23.7134 22.4639 24.8628 22.4639 26.3178C22.4639 29.6948 27.3675 28.4912 27.3675 30.2516C27.3675 30.8983 26.8465 31.2754 26.0025 31.2754C25.1026 31.2754 24.543 30.8426 24.3951 30.0773C24.3741 29.9707 24.2811 29.8926 24.1721 29.8926H22.5161V29.8921C22.3791 29.8921 22.2734 30.0133 22.291 30.1495C22.5057 31.7873 23.7995 33.0536 26.0025 33.0536C28.032 33.0536 29.5051 31.8681 29.5051 30.1977C29.5051 26.5515 24.5294 27.8444 24.5294 26.1922Z" fill="white"/>
<path d="M35.5749 30.9857C35.3408 31.0438 35.0835 31.0787 34.8697 31.0787C34.1154 31.0787 33.6485 30.6116 33.6485 29.6954V25.7984C33.6485 25.7484 33.6893 25.7076 33.7393 25.7076H35.5591C35.6844 25.7076 35.7859 25.606 35.7859 25.4807V24.0843C35.7859 23.959 35.6843 23.8574 35.5589 23.8574H33.7391C33.6893 23.8574 33.6485 23.8166 33.6485 23.7667V21.8752C33.6485 21.7498 33.5468 21.6482 33.4215 21.6482H31.5939C31.4687 21.6482 31.3671 21.7497 31.3671 21.875V23.7667C31.3671 23.8166 31.3263 23.8574 31.2764 23.8574H30.1389C30.0137 23.8574 29.9121 23.9589 29.9121 24.0842V25.4807C29.9121 25.606 30.0137 25.7076 30.1389 25.7076H31.2763C31.3262 25.7076 31.3671 25.7484 31.3671 25.7984V29.8932C31.3671 31.941 32.7323 33.0547 34.5643 33.0547C34.9706 33.0547 35.3492 33.0003 35.7011 32.8799C35.794 32.8481 35.8576 32.7621 35.8576 32.6638V31.203C35.8576 31.0553 35.7182 30.9501 35.5749 30.9857Z" fill="white"/>
<path d="M53.7815 20.1929H55.6092C55.7344 20.1929 55.8361 20.2945 55.8361 20.4197V32.6835C55.8361 32.8087 55.7343 32.9105 55.6091 32.9105H53.7817C53.6564 32.9105 53.5547 32.8087 53.5547 32.6835V20.4197C53.5547 20.2945 53.6563 20.1929 53.7815 20.1929Z" fill="white"/>
<path d="M59.7825 21.1987C59.7825 21.9888 59.1898 22.5457 58.3816 22.5457C57.5731 22.5457 56.9805 21.9706 56.9805 21.1987C56.9805 20.4267 57.5731 19.8335 58.3816 19.8335C59.1898 19.8335 59.7825 20.4085 59.7825 21.1987ZM59.3045 23.8571H57.4769C57.3517 23.8571 57.2501 23.9589 57.2501 24.0841V32.6832C57.2501 32.8085 57.3517 32.91 57.4769 32.91H59.3045C59.4299 32.91 59.5315 32.8085 59.5315 32.6832V24.0841C59.5315 23.9589 59.4299 23.8571 59.3045 23.8571Z" fill="white"/>
<path d="M20.9783 23.8569H19.1511C19.0257 23.8569 18.9241 23.9586 18.9241 24.0839V27.7726C18.9241 29.8384 18.0619 31.0597 16.6427 31.0597C15.5831 31.0597 14.9005 30.3589 14.9005 29.1735V24.0834C14.9005 23.958 14.7989 23.8564 14.6736 23.8564H12.8461C12.7207 23.8564 12.6191 23.958 12.6191 24.0834V29.6582C12.6191 31.7957 14.0383 33.0533 15.9779 33.0533C17.0834 33.0533 17.9762 32.6621 18.542 32.1352C18.5651 32.1134 19.1602 31.513 19.2028 31.4658C19.4461 31.1953 19.6145 31.3014 19.4389 31.6209C19.1422 32.1404 18.9238 32.3002 18.9238 32.6674C18.9238 32.8083 19.0254 32.9099 19.1507 32.9099H20.9781C21.1035 32.9099 21.2051 32.8082 21.2051 32.6829V24.0838C21.2051 23.9585 21.1036 23.8569 20.9783 23.8569Z" fill="white"/>
<path d="M39.1319 29.4787C39.1319 26.9459 40.2639 25.8322 41.575 25.8322C41.8799 25.8322 42.1952 25.8641 42.5129 25.9531C42.6556 25.9931 42.7963 25.882 42.7963 25.7338V24.0487C42.7963 23.9506 42.7336 23.8635 42.6406 23.8328V23.8336C42.3883 23.7501 42.1018 23.7134 41.7906 23.7134C41.1134 23.7134 40.5312 23.9277 40.0631 24.2269C39.8562 24.3474 39.6724 24.4841 39.5142 24.6314C39.4911 24.6533 38.896 25.2537 38.8534 25.3008C38.6101 25.5713 38.4417 25.4652 38.6173 25.1457C38.914 24.6262 39.1324 24.4665 39.1324 24.0993C39.1324 23.9583 39.0308 23.8568 38.9054 23.8568H37.0781C36.9527 23.8568 36.8511 23.9584 36.8511 24.0838V32.6829C36.8511 32.8081 36.9526 32.9097 37.0779 32.9097H38.9051C39.0305 32.9097 39.1321 32.8081 39.1321 32.6827L39.1319 29.4787Z" fill="white"/>
<path d="M52.0852 23.8565H50.2578C50.1324 23.8565 50.0308 23.9581 50.0308 24.099C50.0308 24.4662 50.2492 24.626 50.5459 25.1454C50.7215 25.4649 50.5531 25.5711 50.3098 25.3006C50.2672 25.2534 49.6722 24.653 49.649 24.6312C49.0918 24.1123 48.2176 23.7251 47.1354 23.7134C44.5738 23.764 42.8462 25.567 42.8462 28.3825C42.8462 28.3826 42.8462 28.3827 42.8462 28.3828C42.8462 28.383 42.8462 28.3831 42.8462 28.3832C42.8462 31.1987 44.5738 33.0018 47.1354 33.0523C48.2176 33.0406 49.0918 32.6534 49.649 32.1345C49.6722 32.1127 50.2672 31.5123 50.3098 31.4651C50.5531 31.1947 50.7215 31.3008 50.5459 31.6203C50.2492 32.1397 50.0308 32.2995 50.0308 32.6667C50.0308 32.8076 50.1324 32.9092 50.2578 32.9092H52.0852C52.2105 32.9092 52.3121 32.8076 52.3121 32.6822V24.0835C52.3121 23.9581 52.2105 23.8565 52.0852 23.8565ZM50.0313 28.3828C50.0313 28.3829 50.0313 28.383 50.0313 28.3831C50.0313 28.3833 50.0313 28.3834 50.0313 28.3836C50.0313 30.0184 49.0251 31.1139 47.5882 31.1139C46.1514 31.1139 45.1454 30.0001 45.1454 28.3836C45.1454 28.3834 45.1454 28.3833 45.1454 28.3831C45.1454 28.383 45.1454 28.3829 45.1454 28.3828C45.1454 28.3828 45.1454 28.3827 45.1454 28.3826C45.1454 28.3824 45.1454 28.3823 45.1454 28.3821C45.1454 26.7656 46.1514 25.6518 47.5882 25.6518C49.0251 25.6518 50.0313 26.7473 50.0313 28.3821C50.0313 28.3823 50.0313 28.3824 50.0313 28.3826C50.0313 28.3827 50.0313 28.3828 50.0313 28.3828Z" fill="white"/>
<path d="M69.7404 23.8565H67.9131C67.7877 23.8565 67.6861 23.9581 67.6861 24.099C67.6861 24.4662 67.9045 24.626 68.2012 25.1454C68.3768 25.4649 68.2084 25.5711 67.9651 25.3006C67.9225 25.2534 67.3274 24.653 67.3043 24.6312C66.7471 24.1123 65.8729 23.7251 64.7907 23.7134C62.2291 23.764 60.5015 25.567 60.5015 28.3825C60.5015 28.3826 60.5015 28.3827 60.5015 28.3828C60.5015 28.383 60.5015 28.3831 60.5015 28.3832C60.5015 31.1987 62.2291 33.0018 64.7907 33.0523C65.8729 33.0406 66.7471 32.6534 67.3043 32.1345C67.3274 32.1127 67.9225 31.5123 67.9651 31.4651C68.2084 31.1947 68.3768 31.3008 68.2012 31.6203C67.9045 32.1397 67.6861 32.2995 67.6861 32.6667C67.6861 32.8076 67.7877 32.9092 67.9131 32.9092H69.7404C69.8658 32.9092 69.9674 32.8076 69.9674 32.6822V24.0835C69.9674 23.9581 69.8658 23.8565 69.7404 23.8565ZM67.6866 28.3828C67.6865 28.3829 67.6865 28.383 67.6865 28.3831C67.6865 28.3833 67.6866 28.3834 67.6866 28.3836C67.6866 30.0184 66.6804 31.1139 65.2435 31.1139C63.8067 31.1139 62.8006 30.0001 62.8006 28.3836C62.8006 28.3834 62.8006 28.3833 62.8006 28.3831C62.8006 28.383 62.8007 28.3829 62.8006 28.3828C62.8007 28.3828 62.8007 28.3827 62.8007 28.3826C62.8006 28.3824 62.8006 28.3823 62.8006 28.3821C62.8006 26.7656 63.8067 25.6518 65.2435 25.6518C66.6804 25.6518 67.6866 26.7473 67.6866 28.3821C67.6866 28.3823 67.6866 28.3824 67.6866 28.3826C67.6866 28.3827 67.6865 28.3828 67.6866 28.3828Z" fill="white"/>
<path d="M129.786 7.29926L129.778 7.29032C129.419 6.9249 128.862 6.8485 128.372 6.77637C127.324 6.6162 126.242 6.67224 125.215 6.3715C124.444 6.19141 123.862 5.64814 123.225 5.21922C122.688 4.91614 122.254 4.70754 122.553 5.55294C122.77 6.14522 123.207 6.89135 123.4 7.31518C123.605 7.77217 123.573 8.26192 123.425 8.73228C122.784 10.4209 121.535 11.8702 120.016 12.8326C118.894 13.5302 117.695 13.84 116.431 13.996C115.939 14.0535 115.026 14.1191 115.022 14.1219C115.026 14.1191 113.536 14.1745 112.584 14.2297C110.835 14.2956 108.969 14.7761 107.411 15.4466C105.089 16.4177 103.641 17.5399 101.841 18.7221C101.837 18.7244 101.833 18.7264 101.83 18.7287C101.827 18.7307 101.812 18.7415 101.809 18.7435C99.1197 20.6303 92.2649 22.4072 86.5564 19.6072C83.6225 18.2345 81.0778 15.8635 79.1116 13.4224C77.9265 11.9928 76.9175 10.3702 76.2497 9.22859C75.877 8.57506 75.1712 8.39239 75.4808 9.54355C76.0699 11.3147 76.7637 12.8004 77.8129 14.5782C80.0473 18.4503 83.8986 21.7464 88.1165 23.5923C90.7743 24.7819 93.8942 25.6225 97.5649 25.973C100.073 26.1823 104.214 26.5364 106.141 28.2801C106.644 28.7357 106.997 29.2858 107.13 29.9534C107.423 31.9647 105.267 33.9985 103.414 35.4404C106.061 35.9905 108.212 36.0827 110.167 34.9685C110.211 34.9421 110.254 34.9154 110.297 34.8888L110.297 34.8887C111.649 34.0578 112.898 33.1874 114.129 32.0593C117.682 28.8978 120.806 23.5691 122.361 18.9071C122.368 18.8876 122.381 18.8931 122.401 18.9238C123.82 21.1041 122.281 24.0635 123.174 24.4464C123.241 24.475 123.317 24.4763 123.388 24.462C124.196 24.299 124.244 23.0763 124.306 22.4009C124.418 21.0651 124.504 19.728 124.54 18.3878C124.622 15.686 124.494 12.6322 126.411 10.4823C126.811 10.0372 127.289 9.66034 127.826 9.38681C127.845 9.3775 127.863 9.36731 127.881 9.35825C128.374 9.12052 129.188 9.0344 129.65 8.6541C130.058 8.36778 130.117 7.63812 129.786 7.29926Z" fill="#B4E9FF"/>
<path d="M97.7428 19.3602C99.2075 18.9558 100.416 18.4027 101.201 17.8518L101.229 17.833C101.577 17.6043 101.919 17.3737 102.248 17.1506C103.675 16.1866 105.022 15.276 106.995 14.4509C108.391 13.8502 109.9 13.4373 111.345 13.2527C111.672 12.2591 111.851 11.1986 111.851 10.0956C111.851 4.51994 107.331 0 101.756 0C96.1801 0 91.6602 4.51994 91.6602 10.0956C91.6602 14.2449 94.1642 17.8079 97.7428 19.3602Z" fill="url(#paint0_linear_6585_12720)"/>
<path d="M88.1088 39.4594C92.4888 36.3705 96.4621 34.0543 102.12 31.8732C103.06 31.5102 104.931 30.9438 105.952 30.6407C105.989 30.6312 106.021 30.6238 106.052 30.617C106.078 30.4536 106.086 30.2927 106.066 30.1361C105.802 28.9129 104.273 28.193 102.488 27.7517C102.463 27.7837 102.434 27.8162 102.399 27.8495C101.611 28.6138 100.018 29.6047 97.9348 30.8823C95.9066 32.1257 91.693 34.1868 91.693 34.1868C91.693 34.1868 86.748 36.7828 85.0678 38.2528C81.6391 41.2556 82.1537 43.9254 83.0655 43.9254C84.3512 43.9254 84.9545 41.6842 88.1088 39.4594Z" fill="url(#paint1_linear_6585_12720)"/>
<path d="M121.85 9.22682C121.894 9.26098 121.926 9.28802 121.956 9.31512C122.129 9.0135 122.28 8.70147 122.404 8.38057C122.49 8.09261 122.47 7.92247 122.443 7.82931C122.346 7.54596 121.955 7.31987 121.68 7.20129C121.414 7.08663 121.122 6.99929 120.845 6.91466C120.677 6.86415 120.355 6.77271 120.224 6.94059C120.009 7.21494 121.549 9.03436 121.85 9.22682Z" fill="#B4E9FF"/>
<path d="M110.168 34.9686C108.213 36.0828 106.061 35.9905 103.415 35.4404C103.415 35.4404 103.415 35.4404 103.415 35.4404C102.907 35.8356 102.422 36.1865 102.017 36.4801C96.726 40.1901 92.3792 41.3994 86.7443 47.0316C85.7297 48.0328 84.8881 49.4765 84.6215 50.7387C84.3939 51.916 84.5253 52.829 85.4124 52.8879C85.871 52.888 86.3519 52.3853 87.0437 51.5762C92.2099 44.9498 101.303 40.0603 108.105 36.1759C108.848 35.7509 109.554 35.344 110.233 34.9282C110.211 34.9417 110.19 34.9552 110.168 34.9686Z" fill="#B4E9FF"/>
<path d="M116.705 26.9389C116.801 26.6591 117.314 25.0021 117.276 23.3397C117.233 21.3196 116.276 19.4688 114.756 18.2622H114.755C114.583 18.1257 114.404 17.9961 114.218 17.8772C114.211 17.8718 114.157 17.835 114.136 17.8268C113.201 17.2453 112.1 16.8891 110.893 16.8427C107.263 16.7076 104.125 19.6053 104.051 23.2851C103.995 26.1378 105.505 27.6433 106.142 28.2779C106.142 28.2779 106.175 28.3117 106.192 28.3276C106.668 28.7738 107.002 29.3089 107.13 29.9534C107.423 31.9648 105.267 33.9986 103.415 35.4405C106.061 35.9905 108.212 36.0828 110.167 34.9686C110.211 34.9421 110.254 34.9155 110.297 34.8889C112.918 33.0869 115.443 30.4738 116.697 26.9662C116.697 26.9594 116.701 26.9485 116.705 26.9389Z" fill="url(#paint2_linear_6585_12720)"/>
</g>
<defs>
<linearGradient id="paint0_linear_6585_12720" x1="104.281" y1="17.0336" x2="98.302" y2="0.606207" gradientUnits="userSpaceOnUse">
<stop stop-color="#F5951E"/>
<stop offset="1" stop-color="#FFC20E"/>
</linearGradient>
<linearGradient id="paint1_linear_6585_12720" x1="82.4801" y1="43.4603" x2="119.967" y2="17.4957" gradientUnits="userSpaceOnUse">
<stop stop-color="#B4E9FF"/>
<stop offset="1" stop-color="#36A9C7"/>
</linearGradient>
<linearGradient id="paint2_linear_6585_12720" x1="105.776" y1="28.8648" x2="115.965" y2="20.3156" gradientUnits="userSpaceOnUse">
<stop offset="0.03408" stop-color="#B4E9FF"/>
<stop offset="0.28421" stop-color="#BBEBFF"/>
<stop offset="0.65915" stop-color="#CFF1FF"/>
<stop offset="0.93" stop-color="#E3F7FF"/>
</linearGradient>
<clipPath id="clip0_6585_12720">
<rect width="130" height="52.8878" fill="white"/>
</clipPath>
</defs>
</svg>
